solid OpenSCAD_Model
  facet normal 0 -1 0
    outer loop
      vertex -62 223 0
      vertex 0 223 0
      vertex 0 223 6
    endloop
  endfacet
  facet normal 0 -1 0
    outer loop
      vertex -62 223 6
      vertex -62 223 0
      vertex 0 223 6
    endloop
  endfacet
  facet normal 0 0 -1
    outer loop
      vertex 332 143 0
      vertex 400 485 0
      vertex 400 -15 0
    endloop
  endfacet
  facet normal 0 0 -1
    outer loop
      vertex 54 395 0
      vertex 400 485 0
      vertex 224 395 0
    endloop
  endfacet
  facet normal 0 0 -1
    outer loop
      vertex -100 485 0
      vertex -62 143 0
      vertex -100 -15 0
    endloop
  endfacet
  facet normal 0 0 -1
    outer loop
      vertex 0 223 0
      vertex 400 485 0
      vertex 0 149 0
    endloop
  endfacet
  facet normal 0 0 -1
    outer loop
      vertex -62 143 0
      vertex 0 143 0
      vertex -100 -15 0
    endloop
  endfacet
  facet normal 0 0 -1
    outer loop
      vertex 54 155 0
      vertex 400 485 0
      vertex 76 155 0
    endloop
  endfacet
  facet normal 0 0 -1
    outer loop
      vertex -100 -15 0
      vertex 0 0 0
      vertex 400 -15 0
    endloop
  endfacet
  facet normal 0 0 -1
    outer loop
      vertex 0 0 0
      vertex 6 0 0
      vertex 400 -15 0
    endloop
  endfacet
  facet normal 0 0 -1
    outer loop
      vertex 270 223 0
      vertex 400 485 0
      vertex 332 223 0
    endloop
  endfacet
  facet normal 0 0 -1
    outer loop
      vertex 6 0 0
      vertex 264 7 0
      vertex 264 0 0
    endloop
  endfacet
  facet normal 0 0 -1
    outer loop
      vertex 6 0 0
      vertex 264 0 0
      vertex 400 -15 0
    endloop
  endfacet
  facet normal 0 0 -1
    outer loop
      vertex 264 0 0
      vertex 270 0 0
      vertex 400 -15 0
    endloop
  endfacet
  facet normal 0 0 -1
    outer loop
      vertex 76 149 0
      vertex 400 485 0
      vertex 270 223 0
    endloop
  endfacet
  facet normal 0 0 -1
    outer loop
      vertex 76 149 0
      vertex 202 155 0
      vertex 202 149 0
    endloop
  endfacet
  facet normal 0 0 -1
    outer loop
      vertex 332 223 0
      vertex 400 485 0
      vertex 332 143 0
    endloop
  endfacet
  facet normal 0 0 -1
    outer loop
      vertex 76 149 0
      vertex 270 223 0
      vertex 202 155 0
    endloop
  endfacet
  facet normal 0 0 -1
    outer loop
      vertex 224 149 0
      vertex 270 223 0
      vertex 270 149 0
    endloop
  endfacet
  facet normal 0 0 -1
    outer loop
      vertex 224 155 0
      vertex 270 223 0
      vertex 224 149 0
    endloop
  endfacet
  facet normal 0 0 -1
    outer loop
      vertex 270 143 0
      vertex 332 143 0
      vertex 400 -15 0
    endloop
  endfacet
  facet normal 0 0 -1
    outer loop
      vertex 202 155 0
      vertex 270 223 0
      vertex 224 155 0
    endloop
  endfacet
  facet normal 0 0 -1
    outer loop
      vertex 270 143 0
      vertex 400 -15 0
      vertex 270 0 0
    endloop
  endfacet
  facet normal 0 0 -1
    outer loop
      vertex 76 155 0
      vertex 400 485 0
      vertex 76 149 0
    endloop
  endfacet
  facet normal 0 0 -1
    outer loop
      vertex 264 7 0
      vertex 6 0 0
      vertex 6 7 0
    endloop
  endfacet
  facet normal 0 0 -1
    outer loop
      vertex 0 149 0
      vertex 400 485 0
      vertex 54 155 0
    endloop
  endfacet
  facet normal 0 0 -1
    outer loop
      vertex 224 389 0
      vertex 400 485 0
      vertex 0 223 0
    endloop
  endfacet
  facet normal 0 0 -1
    outer loop
      vertex -100 485 0
      vertex 0 223 0
      vertex -62 223 0
    endloop
  endfacet
  facet normal 0 0 -1
    outer loop
      vertex -100 485 0
      vertex -62 223 0
      vertex -62 143 0
    endloop
  endfacet
  facet normal 0 0 -1
    outer loop
      vertex -100 485 0
      vertex 54 389 0
      vertex 0 223 0
    endloop
  endfacet
  facet normal 0 0 -1
    outer loop
      vertex 224 395 0
      vertex 400 485 0
      vertex 224 389 0
    endloop
  endfacet
  facet normal 0 0 -1
    outer loop
      vertex 54 389 0
      vertex 224 389 0
      vertex 0 223 0
    endloop
  endfacet
  facet normal 0 0 -1
    outer loop
      vertex -100 485 0
      vertex 400 485 0
      vertex 54 395 0
    endloop
  endfacet
  facet normal 0 0 -1
    outer loop
      vertex -100 485 0
      vertex 54 395 0
      vertex 54 389 0
    endloop
  endfacet
  facet normal 0 0 -1
    outer loop
      vertex 0 0 0
      vertex -100 -15 0
      vertex 0 143 0
    endloop
  endfacet
  facet normal 0 0 -1
    outer loop
      vertex 0 149 0
      vertex 54 155 0
      vertex 54 149 0
    endloop
  endfacet
  facet normal 1 0 0
    outer loop
      vertex -62 143 0
      vertex -62 223 0
      vertex -62 223 6
    endloop
  endfacet
  facet normal 1 0 0
    outer loop
      vertex -62 143 6
      vertex -62 143 0
      vertex -62 223 6
    endloop
  endfacet
  facet normal 0 0 1
    outer loop
      vertex 332 223 6
      vertex 400 -15 6
      vertex 400 485 6
    endloop
  endfacet
  facet normal 0 0 1
    outer loop
      vertex 76 149 6
      vertex 202 149 6
      vertex 76 155 6
    endloop
  endfacet
  facet normal 0 0 1
    outer loop
      vertex -100 485 6
      vertex -100 -15 6
      vertex -62 143 6
    endloop
  endfacet
  facet normal 0 0 1
    outer loop
      vertex 224 389 6
      vertex -62 223 6
      vertex 400 485 6
    endloop
  endfacet
  facet normal 0 0 1
    outer loop
      vertex -100 485 6
      vertex -62 143 6
      vertex -62 223 6
    endloop
  endfacet
  facet normal 0 0 1
    outer loop
      vertex -62 223 6
      vertex 0 223 6
      vertex 400 485 6
    endloop
  endfacet
  facet normal 0 0 1
    outer loop
      vertex 224 389 6
      vertex 54 389 6
      vertex -62 223 6
    endloop
  endfacet
  facet normal 0 0 1
    outer loop
      vertex 224 149 6
      vertex 270 149 6
      vertex 224 155 6
    endloop
  endfacet
  facet normal 0 0 1
    outer loop
      vertex 0 149 6
      vertex 54 155 6
      vertex 400 485 6
    endloop
  endfacet
  facet normal 0 0 1
    outer loop
      vertex 0 149 6
      vertex 54 149 6
      vertex 54 155 6
    endloop
  endfacet
  facet normal 0 0 1
    outer loop
      vertex 202 155 6
      vertex 224 155 6
      vertex 400 485 6
    endloop
  endfacet
  facet normal 0 0 1
    outer loop
      vertex 76 155 6
      vertex 202 155 6
      vertex 400 485 6
    endloop
  endfacet
  facet normal 0 0 1
    outer loop
      vertex 76 155 6
      vertex 202 149 6
      vertex 202 155 6
    endloop
  endfacet
  facet normal 0 0 1
    outer loop
      vertex 0 0 6
      vertex 0 143 6
      vertex -100 -15 6
    endloop
  endfacet
  facet normal 0 0 1
    outer loop
      vertex 332 143 6
      vertex 270 143 6
      vertex 400 -15 6
    endloop
  endfacet
  facet normal 0 0 1
    outer loop
      vertex 224 155 6
      vertex 270 223 6
      vertex 400 485 6
    endloop
  endfacet
  facet normal 0 0 1
    outer loop
      vertex 224 155 6
      vertex 270 149 6
      vertex 270 223 6
    endloop
  endfacet
  facet normal 0 0 1
    outer loop
      vertex 332 143 6
      vertex 400 -15 6
      vertex 332 223 6
    endloop
  endfacet
  facet normal 0 0 1
    outer loop
      vertex 270 223 6
      vertex 332 223 6
      vertex 400 485 6
    endloop
  endfacet
  facet normal 0 0 1
    outer loop
      vertex 264 7 6
      vertex 6 7 6
      vertex 264 0 6
    endloop
  endfacet
  facet normal 0 0 1
    outer loop
      vertex -100 -15 6
      vertex 400 -15 6
      vertex 270 0 6
    endloop
  endfacet
  facet normal 0 0 1
    outer loop
      vertex -100 -15 6
      vertex 270 0 6
      vertex 264 0 6
    endloop
  endfacet
  facet normal 0 0 1
    outer loop
      vertex 6 0 6
      vertex 264 0 6
      vertex 6 7 6
    endloop
  endfacet
  facet normal 0 0 1
    outer loop
      vertex -100 -15 6
      vertex 264 0 6
      vertex 6 0 6
    endloop
  endfacet
  facet normal 0 0 1
    outer loop
      vertex -100 -15 6
      vertex 6 0 6
      vertex 0 0 6
    endloop
  endfacet
  facet normal 0 0 1
    outer loop
      vertex 0 223 6
      vertex 0 149 6
      vertex 400 485 6
    endloop
  endfacet
  facet normal 0 0 1
    outer loop
      vertex -100 485 6
      vertex -62 223 6
      vertex 54 389 6
    endloop
  endfacet
  facet normal 0 0 1
    outer loop
      vertex -100 485 6
      vertex 54 395 6
      vertex 400 485 6
    endloop
  endfacet
  facet normal 0 0 1
    outer loop
      vertex -100 485 6
      vertex 54 389 6
      vertex 54 395 6
    endloop
  endfacet
  facet normal 0 0 1
    outer loop
      vertex 224 395 6
      vertex 224 389 6
      vertex 400 485 6
    endloop
  endfacet
  facet normal 0 0 1
    outer loop
      vertex 54 395 6
      vertex 224 395 6
      vertex 400 485 6
    endloop
  endfacet
  facet normal 0 0 1
    outer loop
      vertex 0 143 6
      vertex -62 143 6
      vertex -100 -15 6
    endloop
  endfacet
  facet normal 0 0 1
    outer loop
      vertex 54 155 6
      vertex 76 155 6
      vertex 400 485 6
    endloop
  endfacet
  facet normal 0 0 1
    outer loop
      vertex 270 143 6
      vertex 270 0 6
      vertex 400 -15 6
    endloop
  endfacet
  facet normal -1 0 0
    outer loop
      vertex 0 149 6
      vertex 0 223 6
      vertex 0 149 0
    endloop
  endfacet
  facet normal -1 0 0
    outer loop
      vertex 0 149 0
      vertex 0 223 6
      vertex 0 223 0
    endloop
  endfacet
  facet normal 0 -1 0
    outer loop
      vertex -100 -15 0
      vertex 400 -15 0
      vertex 400 -15 6
    endloop
  endfacet
  facet normal 0 -1 0
    outer loop
      vertex -100 -15 6
      vertex -100 -15 0
      vertex 400 -15 6
    endloop
  endfacet
  facet normal -1 0 0
    outer loop
      vertex -100 -15 6
      vertex -100 485 6
      vertex -100 -15 0
    endloop
  endfacet
  facet normal -1 0 0
    outer loop
      vertex -100 -15 0
      vertex -100 485 6
      vertex -100 485 0
    endloop
  endfacet
  facet normal 1 0 0
    outer loop
      vertex 400 -15 0
      vertex 400 485 0
      vertex 400 485 6
    endloop
  endfacet
  facet normal 1 0 0
    outer loop
      vertex 400 -15 6
      vertex 400 -15 0
      vertex 400 485 6
    endloop
  endfacet
  facet normal 0 1 0
    outer loop
      vertex -100 485 6
      vertex 400 485 6
      vertex -100 485 0
    endloop
  endfacet
  facet normal 0 1 0
    outer loop
      vertex -100 485 0
      vertex 400 485 6
      vertex 400 485 0
    endloop
  endfacet
  facet normal 0 1 0
    outer loop
      vertex -62 143 6
      vertex 0 143 6
      vertex -62 143 0
    endloop
  endfacet
  facet normal 0 1 0
    outer loop
      vertex -62 143 0
      vertex 0 143 6
      vertex 0 143 0
    endloop
  endfacet
  facet normal 0 -1 0
    outer loop
      vertex 0 149 0
      vertex 54 149 0
      vertex 54 149 6
    endloop
  endfacet
  facet normal 0 -1 0
    outer loop
      vertex 0 149 6
      vertex 0 149 0
      vertex 54 149 6
    endloop
  endfacet
  facet normal 1 0 0
    outer loop
      vertex 54 149 0
      vertex 54 155 0
      vertex 54 155 6
    endloop
  endfacet
  facet normal 1 0 0
    outer loop
      vertex 54 149 6
      vertex 54 149 0
      vertex 54 155 6
    endloop
  endfacet
  facet normal 0 -1 0
    outer loop
      vertex 54 155 0
      vertex 76 155 0
      vertex 76 155 6
    endloop
  endfacet
  facet normal 0 -1 0
    outer loop
      vertex 54 155 6
      vertex 54 155 0
      vertex 76 155 6
    endloop
  endfacet
  facet normal -1 0 0
    outer loop
      vertex 76 149 6
      vertex 76 155 6
      vertex 76 149 0
    endloop
  endfacet
  facet normal -1 0 0
    outer loop
      vertex 76 149 0
      vertex 76 155 6
      vertex 76 155 0
    endloop
  endfacet
  facet normal 0 -1 0
    outer loop
      vertex 76 149 0
      vertex 202 149 0
      vertex 202 149 6
    endloop
  endfacet
  facet normal 0 -1 0
    outer loop
      vertex 76 149 6
      vertex 76 149 0
      vertex 202 149 6
    endloop
  endfacet
  facet normal 1 0 0
    outer loop
      vertex 202 149 0
      vertex 202 155 0
      vertex 202 155 6
    endloop
  endfacet
  facet normal 1 0 0
    outer loop
      vertex 202 149 6
      vertex 202 149 0
      vertex 202 155 6
    endloop
  endfacet
  facet normal 0 -1 0
    outer loop
      vertex 202 155 0
      vertex 224 155 0
      vertex 224 155 6
    endloop
  endfacet
  facet normal 0 -1 0
    outer loop
      vertex 202 155 6
      vertex 202 155 0
      vertex 224 155 6
    endloop
  endfacet
  facet normal -1 0 0
    outer loop
      vertex 224 149 6
      vertex 224 155 6
      vertex 224 149 0
    endloop
  endfacet
  facet normal -1 0 0
    outer loop
      vertex 224 149 0
      vertex 224 155 6
      vertex 224 155 0
    endloop
  endfacet
  facet normal 0 -1 0
    outer loop
      vertex 224 149 0
      vertex 270 149 0
      vertex 270 149 6
    endloop
  endfacet
  facet normal 0 -1 0
    outer loop
      vertex 224 149 6
      vertex 224 149 0
      vertex 270 149 6
    endloop
  endfacet
  facet normal 1 0 0
    outer loop
      vertex 270 149 0
      vertex 270 223 0
      vertex 270 223 6
    endloop
  endfacet
  facet normal 1 0 0
    outer loop
      vertex 270 149 6
      vertex 270 149 0
      vertex 270 223 6
    endloop
  endfacet
  facet normal 0 -1 0
    outer loop
      vertex 270 223 0
      vertex 332 223 0
      vertex 332 223 6
    endloop
  endfacet
  facet normal 0 -1 0
    outer loop
      vertex 270 223 6
      vertex 270 223 0
      vertex 332 223 6
    endloop
  endfacet
  facet normal -1 0 0
    outer loop
      vertex 332 143 6
      vertex 332 223 6
      vertex 332 143 0
    endloop
  endfacet
  facet normal -1 0 0
    outer loop
      vertex 332 143 0
      vertex 332 223 6
      vertex 332 223 0
    endloop
  endfacet
  facet normal 0 1 0
    outer loop
      vertex 270 143 6
      vertex 332 143 6
      vertex 270 143 0
    endloop
  endfacet
  facet normal 0 1 0
    outer loop
      vertex 270 143 0
      vertex 332 143 6
      vertex 332 143 0
    endloop
  endfacet
  facet normal -1 0 0
    outer loop
      vertex 270 0 6
      vertex 270 143 6
      vertex 270 0 0
    endloop
  endfacet
  facet normal -1 0 0
    outer loop
      vertex 270 0 0
      vertex 270 143 6
      vertex 270 143 0
    endloop
  endfacet
  facet normal 0 1 0
    outer loop
      vertex 264 0 6
      vertex 270 0 6
      vertex 264 0 0
    endloop
  endfacet
  facet normal 0 1 0
    outer loop
      vertex 264 0 0
      vertex 270 0 6
      vertex 270 0 0
    endloop
  endfacet
  facet normal 1 0 0
    outer loop
      vertex 264 0 0
      vertex 264 7 0
      vertex 264 7 6
    endloop
  endfacet
  facet normal 1 0 0
    outer loop
      vertex 264 0 6
      vertex 264 0 0
      vertex 264 7 6
    endloop
  endfacet
  facet normal 0 1 0
    outer loop
      vertex 6 7 6
      vertex 264 7 6
      vertex 6 7 0
    endloop
  endfacet
  facet normal 0 1 0
    outer loop
      vertex 6 7 0
      vertex 264 7 6
      vertex 264 7 0
    endloop
  endfacet
  facet normal -1 0 0
    outer loop
      vertex 6 0 6
      vertex 6 7 6
      vertex 6 0 0
    endloop
  endfacet
  facet normal -1 0 0
    outer loop
      vertex 6 0 0
      vertex 6 7 6
      vertex 6 7 0
    endloop
  endfacet
  facet normal 0 1 0
    outer loop
      vertex 0 0 6
      vertex 6 0 6
      vertex 0 0 0
    endloop
  endfacet
  facet normal 0 1 0
    outer loop
      vertex 0 0 0
      vertex 6 0 6
      vertex 6 0 0
    endloop
  endfacet
  facet normal 1 0 0
    outer loop
      vertex 0 0 0
      vertex 0 143 0
      vertex 0 143 6
    endloop
  endfacet
  facet normal 1 0 0
    outer loop
      vertex 0 0 6
      vertex 0 0 0
      vertex 0 143 6
    endloop
  endfacet
  facet normal 0 1 0
    outer loop
      vertex 54 389 6
      vertex 224 389 6
      vertex 54 389 0
    endloop
  endfacet
  facet normal 0 1 0
    outer loop
      vertex 54 389 0
      vertex 224 389 6
      vertex 224 389 0
    endloop
  endfacet
  facet normal 1 0 0
    outer loop
      vertex 54 389 0
      vertex 54 395 0
      vertex 54 395 6
    endloop
  endfacet
  facet normal 1 0 0
    outer loop
      vertex 54 389 6
      vertex 54 389 0
      vertex 54 395 6
    endloop
  endfacet
  facet normal 0 -1 0
    outer loop
      vertex 54 395 0
      vertex 224 395 0
      vertex 224 395 6
    endloop
  endfacet
  facet normal 0 -1 0
    outer loop
      vertex 54 395 6
      vertex 54 395 0
      vertex 224 395 6
    endloop
  endfacet
  facet normal -1 0 0
    outer loop
      vertex 224 389 6
      vertex 224 395 6
      vertex 224 389 0
    endloop
  endfacet
  facet normal -1 0 0
    outer loop
      vertex 224 389 0
      vertex 224 395 6
      vertex 224 395 0
    endloop
  endfacet
  facet normal 0 1 0
    outer loop
      vertex 6 143 6
      vertex 264 143 6
      vertex 6 143 0
    endloop
  endfacet
  facet normal 0 1 0
    outer loop
      vertex 6 143 0
      vertex 264 143 6
      vertex 264 143 0
    endloop
  endfacet
  facet normal 0 0 -1
    outer loop
      vertex 6 143 0
      vertex 264 143 0
      vertex 6 13 0
    endloop
  endfacet
  facet normal 0 0 -1
    outer loop
      vertex 6 13 0
      vertex 264 143 0
      vertex 264 13 0
    endloop
  endfacet
  facet normal 1 0 0
    outer loop
      vertex 264 13 0
      vertex 264 143 0
      vertex 264 143 6
    endloop
  endfacet
  facet normal 1 0 0
    outer loop
      vertex 264 13 6
      vertex 264 13 0
      vertex 264 143 6
    endloop
  endfacet
  facet normal -1 0 0
    outer loop
      vertex 6 13 6
      vertex 6 143 6
      vertex 6 13 0
    endloop
  endfacet
  facet normal -1 0 0
    outer loop
      vertex 6 13 0
      vertex 6 143 6
      vertex 6 143 0
    endloop
  endfacet
  facet normal 0 0 1
    outer loop
      vertex 6 13 6
      vertex 264 13 6
      vertex 264 143 6
    endloop
  endfacet
  facet normal 0 0 1
    outer loop
      vertex 6 143 6
      vertex 6 13 6
      vertex 264 143 6
    endloop
  endfacet
  facet normal 0 -1 0
    outer loop
      vertex 6 13 0
      vertex 264 13 0
      vertex 264 13 6
    endloop
  endfacet
  facet normal 0 -1 0
    outer loop
      vertex 6 13 6
      vertex 6 13 0
      vertex 264 13 6
    endloop
  endfacet
endsolid OpenSCAD_Model
