  0
SECTION
  2
BLOCKS
  0
ENDSEC
  0
SECTION
  2
ENTITIES
  0
LINE
  8
0
 10
-100
 11
-100
 20
-15
 21
455
  0
LINE
  8
0
 10
-100
 11
370
 20
455
 21
455
  0
LINE
  8
0
 10
370
 11
370
 20
455
 21
-15
  0
LINE
  8
0
 10
370
 11
-100
 20
-15
 21
-15
  0
LINE
  8
0
 10
-62
 11
-62
 20
143
 21
223
  0
LINE
  8
0
 10
-62
 11
0
 20
223
 21
223
  0
LINE
  8
0
 10
0
 11
0
 20
223
 21
149
  0
LINE
  8
0
 10
0
 11
54
 20
149
 21
149
  0
LINE
  8
0
 10
54
 11
54
 20
149
 21
155
  0
LINE
  8
0
 10
54
 11
76
 20
155
 21
155
  0
LINE
  8
0
 10
76
 11
76
 20
155
 21
149
  0
LINE
  8
0
 10
76
 11
202
 20
149
 21
149
  0
LINE
  8
0
 10
202
 11
202
 20
149
 21
155
  0
LINE
  8
0
 10
202
 11
224
 20
155
 21
155
  0
LINE
  8
0
 10
224
 11
224
 20
155
 21
149
  0
LINE
  8
0
 10
224
 11
270
 20
149
 21
149
  0
LINE
  8
0
 10
270
 11
270
 20
149
 21
223
  0
LINE
  8
0
 10
270
 11
332
 20
223
 21
223
  0
LINE
  8
0
 10
332
 11
332
 20
223
 21
143
  0
LINE
  8
0
 10
332
 11
270
 20
143
 21
143
  0
LINE
  8
0
 10
270
 11
270
 20
143
 21
0
  0
LINE
  8
0
 10
270
 11
264
 20
0
 21
0
  0
LINE
  8
0
 10
264
 11
264
 20
0
 21
7
  0
LINE
  8
0
 10
264
 11
6
 20
7
 21
7
  0
LINE
  8
0
 10
6
 11
6
 20
7
 21
0
  0
LINE
  8
0
 10
6
 11
0
 20
0
 21
0
  0
LINE
  8
0
 10
0
 11
0
 20
0
 21
143
  0
LINE
  8
0
 10
0
 11
-62
 20
143
 21
143
  0
LINE
  8
0
 10
6
 11
6
 20
13
 21
143
  0
LINE
  8
0
 10
6
 11
264
 20
143
 21
143
  0
LINE
  8
0
 10
264
 11
264
 20
143
 21
13
  0
LINE
  8
0
 10
264
 11
6
 20
13
 21
13
  0
LINE
  8
0
 10
54
 11
54
 20
389
 21
395
  0
LINE
  8
0
 10
54
 11
224
 20
395
 21
395
  0
LINE
  8
0
 10
224
 11
224
 20
395
 21
389
  0
LINE
  8
0
 10
224
 11
54
 20
389
 21
389
  0
ENDSEC
  0
SECTION
  2
OBJECTS
  0
DICTIONARY
  0
ENDSEC
  0
EOF
