  0
SECTION
  2
BLOCKS
  0
ENDSEC
  0
SECTION
  2
ENTITIES
  0
LINE
  8
0
 10
-100
 11
-100
 20
-15
 21
475
  0
LINE
  8
0
 10
-100
 11
405
 20
475
 21
475
  0
LINE
  8
0
 10
405
 11
405
 20
475
 21
-15
  0
LINE
  8
0
 10
405
 11
-100
 20
-15
 21
-15
  0
LINE
  8
0
 10
-61
 11
-61
 20
143
 21
149
  0
LINE
  8
0
 10
-61
 11
-60
 20
149
 21
149
  0
LINE
  8
0
 10
-60
 11
-60
 20
149
 21
223
  0
LINE
  8
0
 10
-60
 11
0
 20
223
 21
223
  0
LINE
  8
0
 10
0
 11
0
 20
223
 21
149
  0
LINE
  8
0
 10
0
 11
59
 20
149
 21
149
  0
LINE
  8
0
 10
59
 11
59
 20
149
 21
155
  0
LINE
  8
0
 10
59
 11
81
 20
155
 21
155
  0
LINE
  8
0
 10
81
 11
81
 20
155
 21
149
  0
LINE
  8
0
 10
81
 11
207
 20
149
 21
149
  0
LINE
  8
0
 10
207
 11
207
 20
149
 21
155
  0
LINE
  8
0
 10
207
 11
229
 20
155
 21
155
  0
LINE
  8
0
 10
229
 11
229
 20
155
 21
149
  0
LINE
  8
0
 10
229
 11
269
 20
149
 21
149
  0
LINE
  8
0
 10
269
 11
269
 20
149
 21
223
  0
LINE
  8
0
 10
269
 11
329
 20
223
 21
223
  0
LINE
  8
0
 10
329
 11
329
 20
223
 21
149
  0
LINE
  8
0
 10
329
 11
330
 20
149
 21
149
  0
LINE
  8
0
 10
330
 11
330
 20
149
 21
143
  0
LINE
  8
0
 10
330
 11
269
 20
143
 21
143
  0
LINE
  8
0
 10
269
 11
269
 20
143
 21
0
  0
LINE
  8
0
 10
269
 11
263
 20
0
 21
0
  0
LINE
  8
0
 10
263
 11
263
 20
0
 21
7
  0
LINE
  8
0
 10
263
 11
6
 20
7
 21
7
  0
LINE
  8
0
 10
6
 11
6
 20
7
 21
0
  0
LINE
  8
0
 10
6
 11
0
 20
0
 21
0
  0
LINE
  8
0
 10
0
 11
0
 20
0
 21
143
  0
LINE
  8
0
 10
0
 11
-61
 20
143
 21
143
  0
LINE
  8
0
 10
6
 11
6
 20
13
 21
143
  0
LINE
  8
0
 10
6
 11
263
 20
143
 21
143
  0
LINE
  8
0
 10
263
 11
263
 20
143
 21
13
  0
LINE
  8
0
 10
263
 11
6
 20
13
 21
13
  0
LINE
  8
0
 10
60
 11
60
 20
389
 21
395
  0
LINE
  8
0
 10
60
 11
230
 20
395
 21
395
  0
LINE
  8
0
 10
230
 11
230
 20
395
 21
389
  0
LINE
  8
0
 10
230
 11
60
 20
389
 21
389
  0
ENDSEC
  0
SECTION
  2
OBJECTS
  0
DICTIONARY
  0
ENDSEC
  0
EOF
