solid OpenSCAD_Model
  facet normal 0 -1 0
    outer loop
      vertex -61 149 0
      vertex -60 149 0
      vertex -60 149 6
    endloop
  endfacet
  facet normal 0 -1 0
    outer loop
      vertex -61 149 6
      vertex -61 149 0
      vertex -60 149 6
    endloop
  endfacet
  facet normal 0 0 -1
    outer loop
      vertex 330 143 0
      vertex 405 475 0
      vertex 405 -15 0
    endloop
  endfacet
  facet normal 0 0 -1
    outer loop
      vertex -61 149 0
      vertex -60 223 0
      vertex -60 149 0
    endloop
  endfacet
  facet normal 0 0 -1
    outer loop
      vertex -100 475 0
      vertex -61 143 0
      vertex -100 -15 0
    endloop
  endfacet
  facet normal 0 0 -1
    outer loop
      vertex 0 223 0
      vertex 405 475 0
      vertex 0 149 0
    endloop
  endfacet
  facet normal 0 0 -1
    outer loop
      vertex -61 143 0
      vertex 0 143 0
      vertex -100 -15 0
    endloop
  endfacet
  facet normal 0 0 -1
    outer loop
      vertex 59 155 0
      vertex 405 475 0
      vertex 81 155 0
    endloop
  endfacet
  facet normal 0 0 -1
    outer loop
      vertex -100 -15 0
      vertex 0 0 0
      vertex 405 -15 0
    endloop
  endfacet
  facet normal 0 0 -1
    outer loop
      vertex 0 0 0
      vertex 6 0 0
      vertex 405 -15 0
    endloop
  endfacet
  facet normal 0 0 -1
    outer loop
      vertex 269 223 0
      vertex 405 475 0
      vertex 329 223 0
    endloop
  endfacet
  facet normal 0 0 -1
    outer loop
      vertex 6 0 0
      vertex 263 7 0
      vertex 263 0 0
    endloop
  endfacet
  facet normal 0 0 -1
    outer loop
      vertex 6 0 0
      vertex 263 0 0
      vertex 405 -15 0
    endloop
  endfacet
  facet normal 0 0 -1
    outer loop
      vertex 263 0 0
      vertex 269 0 0
      vertex 405 -15 0
    endloop
  endfacet
  facet normal 0 0 -1
    outer loop
      vertex 81 149 0
      vertex 269 223 0
      vertex 207 155 0
    endloop
  endfacet
  facet normal 0 0 -1
    outer loop
      vertex 81 149 0
      vertex 207 155 0
      vertex 207 149 0
    endloop
  endfacet
  facet normal 0 0 -1
    outer loop
      vertex 330 149 0
      vertex 405 475 0
      vertex 330 143 0
    endloop
  endfacet
  facet normal 0 0 -1
    outer loop
      vertex 329 149 0
      vertex 405 475 0
      vertex 330 149 0
    endloop
  endfacet
  facet normal 0 0 -1
    outer loop
      vertex 329 223 0
      vertex 405 475 0
      vertex 329 149 0
    endloop
  endfacet
  facet normal 0 0 -1
    outer loop
      vertex 81 149 0
      vertex 405 475 0
      vertex 269 223 0
    endloop
  endfacet
  facet normal 0 0 -1
    outer loop
      vertex 269 223 0
      vertex 269 149 0
      vertex 229 149 0
    endloop
  endfacet
  facet normal 0 0 -1
    outer loop
      vertex 269 223 0
      vertex 229 149 0
      vertex 229 155 0
    endloop
  endfacet
  facet normal 0 0 -1
    outer loop
      vertex 269 143 0
      vertex 330 143 0
      vertex 405 -15 0
    endloop
  endfacet
  facet normal 0 0 -1
    outer loop
      vertex 269 223 0
      vertex 229 155 0
      vertex 207 155 0
    endloop
  endfacet
  facet normal 0 0 -1
    outer loop
      vertex 269 143 0
      vertex 405 -15 0
      vertex 269 0 0
    endloop
  endfacet
  facet normal 0 0 -1
    outer loop
      vertex 81 155 0
      vertex 405 475 0
      vertex 81 149 0
    endloop
  endfacet
  facet normal 0 0 -1
    outer loop
      vertex 263 7 0
      vertex 6 0 0
      vertex 6 7 0
    endloop
  endfacet
  facet normal 0 0 -1
    outer loop
      vertex 0 149 0
      vertex 405 475 0
      vertex 59 155 0
    endloop
  endfacet
  facet normal 0 0 -1
    outer loop
      vertex 230 389 0
      vertex 405 475 0
      vertex 0 223 0
    endloop
  endfacet
  facet normal 0 0 -1
    outer loop
      vertex -100 475 0
      vertex 0 223 0
      vertex -60 223 0
    endloop
  endfacet
  facet normal 0 0 -1
    outer loop
      vertex 60 395 0
      vertex 405 475 0
      vertex 230 395 0
    endloop
  endfacet
  facet normal 0 0 -1
    outer loop
      vertex -100 475 0
      vertex -60 223 0
      vertex -61 149 0
    endloop
  endfacet
  facet normal 0 0 -1
    outer loop
      vertex -100 475 0
      vertex -61 149 0
      vertex -61 143 0
    endloop
  endfacet
  facet normal 0 0 -1
    outer loop
      vertex -100 475 0
      vertex 60 389 0
      vertex 0 223 0
    endloop
  endfacet
  facet normal 0 0 -1
    outer loop
      vertex 230 395 0
      vertex 405 475 0
      vertex 230 389 0
    endloop
  endfacet
  facet normal 0 0 -1
    outer loop
      vertex 60 389 0
      vertex 230 389 0
      vertex 0 223 0
    endloop
  endfacet
  facet normal 0 0 -1
    outer loop
      vertex -100 475 0
      vertex 405 475 0
      vertex 60 395 0
    endloop
  endfacet
  facet normal 0 0 -1
    outer loop
      vertex -100 475 0
      vertex 60 395 0
      vertex 60 389 0
    endloop
  endfacet
  facet normal 0 0 -1
    outer loop
      vertex 0 0 0
      vertex -100 -15 0
      vertex 0 143 0
    endloop
  endfacet
  facet normal 0 0 -1
    outer loop
      vertex 0 149 0
      vertex 59 155 0
      vertex 59 149 0
    endloop
  endfacet
  facet normal 1 0 0
    outer loop
      vertex -61 143 0
      vertex -61 149 0
      vertex -61 149 6
    endloop
  endfacet
  facet normal 1 0 0
    outer loop
      vertex -61 143 6
      vertex -61 143 0
      vertex -61 149 6
    endloop
  endfacet
  facet normal 0 0 1
    outer loop
      vertex 329 223 6
      vertex 405 -15 6
      vertex 405 475 6
    endloop
  endfacet
  facet normal 0 0 1
    outer loop
      vertex 81 149 6
      vertex 207 149 6
      vertex 81 155 6
    endloop
  endfacet
  facet normal 0 0 1
    outer loop
      vertex -100 475 6
      vertex -100 -15 6
      vertex -61 143 6
    endloop
  endfacet
  facet normal 0 0 1
    outer loop
      vertex -100 475 6
      vertex -61 143 6
      vertex -61 149 6
    endloop
  endfacet
  facet normal 0 0 1
    outer loop
      vertex 0 223 6
      vertex 0 149 6
      vertex 405 475 6
    endloop
  endfacet
  facet normal 0 0 1
    outer loop
      vertex 230 389 6
      vertex -60 223 6
      vertex 405 475 6
    endloop
  endfacet
  facet normal 0 0 1
    outer loop
      vertex -100 475 6
      vertex -61 149 6
      vertex -60 223 6
    endloop
  endfacet
  facet normal 0 0 1
    outer loop
      vertex -60 223 6
      vertex 0 223 6
      vertex 405 475 6
    endloop
  endfacet
  facet normal 0 0 1
    outer loop
      vertex 230 389 6
      vertex 60 389 6
      vertex -60 223 6
    endloop
  endfacet
  facet normal 0 0 1
    outer loop
      vertex 59 155 6
      vertex 81 155 6
      vertex 405 475 6
    endloop
  endfacet
  facet normal 0 0 1
    outer loop
      vertex 229 149 6
      vertex 269 149 6
      vertex 229 155 6
    endloop
  endfacet
  facet normal 0 0 1
    outer loop
      vertex 0 149 6
      vertex 59 155 6
      vertex 405 475 6
    endloop
  endfacet
  facet normal 0 0 1
    outer loop
      vertex 0 149 6
      vertex 59 149 6
      vertex 59 155 6
    endloop
  endfacet
  facet normal 0 0 1
    outer loop
      vertex 207 155 6
      vertex 229 155 6
      vertex 405 475 6
    endloop
  endfacet
  facet normal 0 0 1
    outer loop
      vertex 81 155 6
      vertex 207 155 6
      vertex 405 475 6
    endloop
  endfacet
  facet normal 0 0 1
    outer loop
      vertex 81 155 6
      vertex 207 149 6
      vertex 207 155 6
    endloop
  endfacet
  facet normal 0 0 1
    outer loop
      vertex 0 0 6
      vertex 0 143 6
      vertex -100 -15 6
    endloop
  endfacet
  facet normal 0 0 1
    outer loop
      vertex 330 149 6
      vertex 330 143 6
      vertex 405 -15 6
    endloop
  endfacet
  facet normal 0 0 1
    outer loop
      vertex 229 155 6
      vertex 269 223 6
      vertex 405 475 6
    endloop
  endfacet
  facet normal 0 0 1
    outer loop
      vertex 229 155 6
      vertex 269 149 6
      vertex 269 223 6
    endloop
  endfacet
  facet normal 0 0 1
    outer loop
      vertex 330 149 6
      vertex 405 -15 6
      vertex 329 223 6
    endloop
  endfacet
  facet normal 0 0 1
    outer loop
      vertex 329 149 6
      vertex 330 149 6
      vertex 329 223 6
    endloop
  endfacet
  facet normal 0 0 1
    outer loop
      vertex 330 143 6
      vertex 269 143 6
      vertex 405 -15 6
    endloop
  endfacet
  facet normal 0 0 1
    outer loop
      vertex 269 223 6
      vertex 329 223 6
      vertex 405 475 6
    endloop
  endfacet
  facet normal 0 0 1
    outer loop
      vertex 263 7 6
      vertex 6 7 6
      vertex 263 0 6
    endloop
  endfacet
  facet normal 0 0 1
    outer loop
      vertex -100 -15 6
      vertex 405 -15 6
      vertex 269 0 6
    endloop
  endfacet
  facet normal 0 0 1
    outer loop
      vertex -100 -15 6
      vertex 269 0 6
      vertex 263 0 6
    endloop
  endfacet
  facet normal 0 0 1
    outer loop
      vertex 6 0 6
      vertex 263 0 6
      vertex 6 7 6
    endloop
  endfacet
  facet normal 0 0 1
    outer loop
      vertex -100 -15 6
      vertex 263 0 6
      vertex 6 0 6
    endloop
  endfacet
  facet normal 0 0 1
    outer loop
      vertex -100 -15 6
      vertex 6 0 6
      vertex 0 0 6
    endloop
  endfacet
  facet normal 0 0 1
    outer loop
      vertex -100 475 6
      vertex -60 223 6
      vertex 60 389 6
    endloop
  endfacet
  facet normal 0 0 1
    outer loop
      vertex -100 475 6
      vertex 60 395 6
      vertex 405 475 6
    endloop
  endfacet
  facet normal 0 0 1
    outer loop
      vertex -100 475 6
      vertex 60 389 6
      vertex 60 395 6
    endloop
  endfacet
  facet normal 0 0 1
    outer loop
      vertex 230 395 6
      vertex 230 389 6
      vertex 405 475 6
    endloop
  endfacet
  facet normal 0 0 1
    outer loop
      vertex 60 395 6
      vertex 230 395 6
      vertex 405 475 6
    endloop
  endfacet
  facet normal 0 0 1
    outer loop
      vertex 0 143 6
      vertex -61 143 6
      vertex -100 -15 6
    endloop
  endfacet
  facet normal 0 0 1
    outer loop
      vertex -60 149 6
      vertex -60 223 6
      vertex -61 149 6
    endloop
  endfacet
  facet normal 0 0 1
    outer loop
      vertex 269 143 6
      vertex 269 0 6
      vertex 405 -15 6
    endloop
  endfacet
  facet normal 1 0 0
    outer loop
      vertex -60 149 0
      vertex -60 223 0
      vertex -60 223 6
    endloop
  endfacet
  facet normal 1 0 0
    outer loop
      vertex -60 149 6
      vertex -60 149 0
      vertex -60 223 6
    endloop
  endfacet
  facet normal 0 -1 0
    outer loop
      vertex -100 -15 0
      vertex 405 -15 0
      vertex 405 -15 6
    endloop
  endfacet
  facet normal 0 -1 0
    outer loop
      vertex -100 -15 6
      vertex -100 -15 0
      vertex 405 -15 6
    endloop
  endfacet
  facet normal -1 0 0
    outer loop
      vertex -100 -15 6
      vertex -100 475 6
      vertex -100 -15 0
    endloop
  endfacet
  facet normal -1 0 0
    outer loop
      vertex -100 -15 0
      vertex -100 475 6
      vertex -100 475 0
    endloop
  endfacet
  facet normal 1 0 0
    outer loop
      vertex 405 -15 0
      vertex 405 475 0
      vertex 405 475 6
    endloop
  endfacet
  facet normal 1 0 0
    outer loop
      vertex 405 -15 6
      vertex 405 -15 0
      vertex 405 475 6
    endloop
  endfacet
  facet normal 0 1 0
    outer loop
      vertex -100 475 6
      vertex 405 475 6
      vertex -100 475 0
    endloop
  endfacet
  facet normal 0 1 0
    outer loop
      vertex -100 475 0
      vertex 405 475 6
      vertex 405 475 0
    endloop
  endfacet
  facet normal 0 1 0
    outer loop
      vertex -61 143 6
      vertex 0 143 6
      vertex -61 143 0
    endloop
  endfacet
  facet normal 0 1 0
    outer loop
      vertex -61 143 0
      vertex 0 143 6
      vertex 0 143 0
    endloop
  endfacet
  facet normal 0 -1 0
    outer loop
      vertex -60 223 0
      vertex 0 223 0
      vertex 0 223 6
    endloop
  endfacet
  facet normal 0 -1 0
    outer loop
      vertex -60 223 6
      vertex -60 223 0
      vertex 0 223 6
    endloop
  endfacet
  facet normal -1 0 0
    outer loop
      vertex 0 149 6
      vertex 0 223 6
      vertex 0 149 0
    endloop
  endfacet
  facet normal -1 0 0
    outer loop
      vertex 0 149 0
      vertex 0 223 6
      vertex 0 223 0
    endloop
  endfacet
  facet normal 0 -1 0
    outer loop
      vertex 0 149 0
      vertex 59 149 0
      vertex 59 149 6
    endloop
  endfacet
  facet normal 0 -1 0
    outer loop
      vertex 0 149 6
      vertex 0 149 0
      vertex 59 149 6
    endloop
  endfacet
  facet normal 1 0 0
    outer loop
      vertex 59 149 0
      vertex 59 155 0
      vertex 59 155 6
    endloop
  endfacet
  facet normal 1 0 0
    outer loop
      vertex 59 149 6
      vertex 59 149 0
      vertex 59 155 6
    endloop
  endfacet
  facet normal 0 -1 0
    outer loop
      vertex 59 155 0
      vertex 81 155 0
      vertex 81 155 6
    endloop
  endfacet
  facet normal 0 -1 0
    outer loop
      vertex 59 155 6
      vertex 59 155 0
      vertex 81 155 6
    endloop
  endfacet
  facet normal -1 0 0
    outer loop
      vertex 81 149 6
      vertex 81 155 6
      vertex 81 149 0
    endloop
  endfacet
  facet normal -1 0 0
    outer loop
      vertex 81 149 0
      vertex 81 155 6
      vertex 81 155 0
    endloop
  endfacet
  facet normal 0 -1 0
    outer loop
      vertex 81 149 0
      vertex 207 149 0
      vertex 207 149 6
    endloop
  endfacet
  facet normal 0 -1 0
    outer loop
      vertex 81 149 6
      vertex 81 149 0
      vertex 207 149 6
    endloop
  endfacet
  facet normal 1 0 0
    outer loop
      vertex 207 149 0
      vertex 207 155 0
      vertex 207 155 6
    endloop
  endfacet
  facet normal 1 0 0
    outer loop
      vertex 207 149 6
      vertex 207 149 0
      vertex 207 155 6
    endloop
  endfacet
  facet normal 0 -1 0
    outer loop
      vertex 207 155 0
      vertex 229 155 0
      vertex 229 155 6
    endloop
  endfacet
  facet normal 0 -1 0
    outer loop
      vertex 207 155 6
      vertex 207 155 0
      vertex 229 155 6
    endloop
  endfacet
  facet normal -1 0 0
    outer loop
      vertex 229 149 6
      vertex 229 155 6
      vertex 229 149 0
    endloop
  endfacet
  facet normal -1 0 0
    outer loop
      vertex 229 149 0
      vertex 229 155 6
      vertex 229 155 0
    endloop
  endfacet
  facet normal 0 -1 0
    outer loop
      vertex 229 149 0
      vertex 269 149 0
      vertex 269 149 6
    endloop
  endfacet
  facet normal 0 -1 0
    outer loop
      vertex 229 149 6
      vertex 229 149 0
      vertex 269 149 6
    endloop
  endfacet
  facet normal 1 0 0
    outer loop
      vertex 269 149 0
      vertex 269 223 0
      vertex 269 223 6
    endloop
  endfacet
  facet normal 1 0 0
    outer loop
      vertex 269 149 6
      vertex 269 149 0
      vertex 269 223 6
    endloop
  endfacet
  facet normal 0 -1 0
    outer loop
      vertex 269 223 0
      vertex 329 223 0
      vertex 329 223 6
    endloop
  endfacet
  facet normal 0 -1 0
    outer loop
      vertex 269 223 6
      vertex 269 223 0
      vertex 329 223 6
    endloop
  endfacet
  facet normal -1 0 0
    outer loop
      vertex 329 149 6
      vertex 329 223 6
      vertex 329 149 0
    endloop
  endfacet
  facet normal -1 0 0
    outer loop
      vertex 329 149 0
      vertex 329 223 6
      vertex 329 223 0
    endloop
  endfacet
  facet normal 0 -1 0
    outer loop
      vertex 329 149 0
      vertex 330 149 0
      vertex 330 149 6
    endloop
  endfacet
  facet normal 0 -1 0
    outer loop
      vertex 329 149 6
      vertex 329 149 0
      vertex 330 149 6
    endloop
  endfacet
  facet normal -1 0 0
    outer loop
      vertex 330 143 6
      vertex 330 149 6
      vertex 330 143 0
    endloop
  endfacet
  facet normal -1 0 0
    outer loop
      vertex 330 143 0
      vertex 330 149 6
      vertex 330 149 0
    endloop
  endfacet
  facet normal 0 1 0
    outer loop
      vertex 269 143 6
      vertex 330 143 6
      vertex 269 143 0
    endloop
  endfacet
  facet normal 0 1 0
    outer loop
      vertex 269 143 0
      vertex 330 143 6
      vertex 330 143 0
    endloop
  endfacet
  facet normal -1 0 0
    outer loop
      vertex 269 0 6
      vertex 269 143 6
      vertex 269 0 0
    endloop
  endfacet
  facet normal -1 0 0
    outer loop
      vertex 269 0 0
      vertex 269 143 6
      vertex 269 143 0
    endloop
  endfacet
  facet normal 0 1 0
    outer loop
      vertex 263 0 6
      vertex 269 0 6
      vertex 263 0 0
    endloop
  endfacet
  facet normal 0 1 0
    outer loop
      vertex 263 0 0
      vertex 269 0 6
      vertex 269 0 0
    endloop
  endfacet
  facet normal 1 0 0
    outer loop
      vertex 263 0 0
      vertex 263 7 0
      vertex 263 7 6
    endloop
  endfacet
  facet normal 1 0 0
    outer loop
      vertex 263 0 6
      vertex 263 0 0
      vertex 263 7 6
    endloop
  endfacet
  facet normal 0 1 0
    outer loop
      vertex 6 7 6
      vertex 263 7 6
      vertex 6 7 0
    endloop
  endfacet
  facet normal 0 1 0
    outer loop
      vertex 6 7 0
      vertex 263 7 6
      vertex 263 7 0
    endloop
  endfacet
  facet normal -1 0 0
    outer loop
      vertex 6 0 6
      vertex 6 7 6
      vertex 6 0 0
    endloop
  endfacet
  facet normal -1 0 0
    outer loop
      vertex 6 0 0
      vertex 6 7 6
      vertex 6 7 0
    endloop
  endfacet
  facet normal 0 1 0
    outer loop
      vertex 0 0 6
      vertex 6 0 6
      vertex 0 0 0
    endloop
  endfacet
  facet normal 0 1 0
    outer loop
      vertex 0 0 0
      vertex 6 0 6
      vertex 6 0 0
    endloop
  endfacet
  facet normal 1 0 0
    outer loop
      vertex 0 0 0
      vertex 0 143 0
      vertex 0 143 6
    endloop
  endfacet
  facet normal 1 0 0
    outer loop
      vertex 0 0 6
      vertex 0 0 0
      vertex 0 143 6
    endloop
  endfacet
  facet normal 0 1 0
    outer loop
      vertex 60 389 6
      vertex 230 389 6
      vertex 60 389 0
    endloop
  endfacet
  facet normal 0 1 0
    outer loop
      vertex 60 389 0
      vertex 230 389 6
      vertex 230 389 0
    endloop
  endfacet
  facet normal 1 0 0
    outer loop
      vertex 60 389 0
      vertex 60 395 0
      vertex 60 395 6
    endloop
  endfacet
  facet normal 1 0 0
    outer loop
      vertex 60 389 6
      vertex 60 389 0
      vertex 60 395 6
    endloop
  endfacet
  facet normal 0 -1 0
    outer loop
      vertex 60 395 0
      vertex 230 395 0
      vertex 230 395 6
    endloop
  endfacet
  facet normal 0 -1 0
    outer loop
      vertex 60 395 6
      vertex 60 395 0
      vertex 230 395 6
    endloop
  endfacet
  facet normal -1 0 0
    outer loop
      vertex 230 389 6
      vertex 230 395 6
      vertex 230 389 0
    endloop
  endfacet
  facet normal -1 0 0
    outer loop
      vertex 230 389 0
      vertex 230 395 6
      vertex 230 395 0
    endloop
  endfacet
  facet normal 0 -1 0
    outer loop
      vertex 6 13 0
      vertex 263 13 0
      vertex 263 13 6
    endloop
  endfacet
  facet normal 0 -1 0
    outer loop
      vertex 6 13 6
      vertex 6 13 0
      vertex 263 13 6
    endloop
  endfacet
  facet normal 1 0 0
    outer loop
      vertex 263 13 0
      vertex 263 143 0
      vertex 263 143 6
    endloop
  endfacet
  facet normal 1 0 0
    outer loop
      vertex 263 13 6
      vertex 263 13 0
      vertex 263 143 6
    endloop
  endfacet
  facet normal 0 0 -1
    outer loop
      vertex 6 143 0
      vertex 263 143 0
      vertex 6 13 0
    endloop
  endfacet
  facet normal 0 0 -1
    outer loop
      vertex 6 13 0
      vertex 263 143 0
      vertex 263 13 0
    endloop
  endfacet
  facet normal -1 0 0
    outer loop
      vertex 6 13 6
      vertex 6 143 6
      vertex 6 13 0
    endloop
  endfacet
  facet normal -1 0 0
    outer loop
      vertex 6 13 0
      vertex 6 143 6
      vertex 6 143 0
    endloop
  endfacet
  facet normal 0 0 1
    outer loop
      vertex 6 13 6
      vertex 263 13 6
      vertex 263 143 6
    endloop
  endfacet
  facet normal 0 0 1
    outer loop
      vertex 6 143 6
      vertex 6 13 6
      vertex 263 143 6
    endloop
  endfacet
  facet normal 0 1 0
    outer loop
      vertex 6 143 6
      vertex 263 143 6
      vertex 6 143 0
    endloop
  endfacet
  facet normal 0 1 0
    outer loop
      vertex 6 143 0
      vertex 263 143 6
      vertex 263 143 0
    endloop
  endfacet
endsolid OpenSCAD_Model
