  0
SECTION
  2
BLOCKS
  0
ENDSEC
  0
SECTION
  2
ENTITIES
  0
LINE
  8
0
 10
-100
 11
-100
 20
-15
 21
485
  0
LINE
  8
0
 10
-100
 11
400
 20
485
 21
485
  0
LINE
  8
0
 10
400
 11
400
 20
485
 21
-15
  0
LINE
  8
0
 10
400
 11
-100
 20
-15
 21
-15
  0
LINE
  8
0
 10
-60
 11
-60
 20
143
 21
223
  0
LINE
  8
0
 10
-60
 11
0
 20
223
 21
223
  0
LINE
  8
0
 10
0
 11
0
 20
223
 21
149
  0
LINE
  8
0
 10
0
 11
60
 20
149
 21
149
  0
LINE
  8
0
 10
60
 11
60
 20
149
 21
155
  0
LINE
  8
0
 10
60
 11
82
 20
155
 21
155
  0
LINE
  8
0
 10
82
 11
82
 20
155
 21
149
  0
LINE
  8
0
 10
82
 11
208
 20
149
 21
149
  0
LINE
  8
0
 10
208
 11
208
 20
149
 21
155
  0
LINE
  8
0
 10
208
 11
230
 20
155
 21
155
  0
LINE
  8
0
 10
230
 11
230
 20
155
 21
149
  0
LINE
  8
0
 10
230
 11
269
 20
149
 21
149
  0
LINE
  8
0
 10
269
 11
269
 20
149
 21
223
  0
LINE
  8
0
 10
269
 11
329
 20
223
 21
223
  0
LINE
  8
0
 10
329
 11
329
 20
223
 21
149
  0
LINE
  8
0
 10
329
 11
325
 20
149
 21
149
  0
LINE
  8
0
 10
325
 11
325
 20
149
 21
143
  0
LINE
  8
0
 10
325
 11
269
 20
143
 21
143
  0
LINE
  8
0
 10
269
 11
269
 20
143
 21
0
  0
LINE
  8
0
 10
269
 11
263
 20
0
 21
0
  0
LINE
  8
0
 10
263
 11
263
 20
0
 21
7
  0
LINE
  8
0
 10
263
 11
6
 20
7
 21
7
  0
LINE
  8
0
 10
6
 11
6
 20
7
 21
0
  0
LINE
  8
0
 10
6
 11
0
 20
0
 21
0
  0
LINE
  8
0
 10
0
 11
0
 20
0
 21
143
  0
LINE
  8
0
 10
0
 11
-60
 20
143
 21
143
  0
LINE
  8
0
 10
6
 11
6
 20
13
 21
143
  0
LINE
  8
0
 10
6
 11
263
 20
143
 21
143
  0
LINE
  8
0
 10
263
 11
263
 20
143
 21
13
  0
LINE
  8
0
 10
263
 11
6
 20
13
 21
13
  0
LINE
  8
0
 10
60
 11
60
 20
389
 21
395
  0
LINE
  8
0
 10
60
 11
230
 20
395
 21
395
  0
LINE
  8
0
 10
230
 11
230
 20
395
 21
389
  0
LINE
  8
0
 10
230
 11
60
 20
389
 21
389
  0
ENDSEC
  0
SECTION
  2
OBJECTS
  0
DICTIONARY
  0
ENDSEC
  0
EOF
