solid OpenSCAD_Model
  facet normal 0 -1 0
    outer loop
      vertex -60 223 0
      vertex 0 223 0
      vertex 0 223 6
    endloop
  endfacet
  facet normal 0 -1 0
    outer loop
      vertex -60 223 6
      vertex -60 223 0
      vertex 0 223 6
    endloop
  endfacet
  facet normal 0 0 -1
    outer loop
      vertex 329 149 0
      vertex 400 485 0
      vertex 400 -15 0
    endloop
  endfacet
  facet normal 0 0 -1
    outer loop
      vertex 60 395 0
      vertex 400 485 0
      vertex 230 395 0
    endloop
  endfacet
  facet normal 0 0 -1
    outer loop
      vertex -100 485 0
      vertex -60 143 0
      vertex -100 -15 0
    endloop
  endfacet
  facet normal 0 0 -1
    outer loop
      vertex 0 223 0
      vertex 400 485 0
      vertex 0 149 0
    endloop
  endfacet
  facet normal 0 0 -1
    outer loop
      vertex -60 143 0
      vertex 0 143 0
      vertex -100 -15 0
    endloop
  endfacet
  facet normal 0 0 -1
    outer loop
      vertex 60 155 0
      vertex 400 485 0
      vertex 82 155 0
    endloop
  endfacet
  facet normal 0 0 -1
    outer loop
      vertex -100 -15 0
      vertex 0 0 0
      vertex 400 -15 0
    endloop
  endfacet
  facet normal 0 0 -1
    outer loop
      vertex 0 0 0
      vertex 6 0 0
      vertex 400 -15 0
    endloop
  endfacet
  facet normal 0 0 -1
    outer loop
      vertex 329 149 0
      vertex 325 143 0
      vertex 325 149 0
    endloop
  endfacet
  facet normal 0 0 -1
    outer loop
      vertex 6 0 0
      vertex 263 7 0
      vertex 263 0 0
    endloop
  endfacet
  facet normal 0 0 -1
    outer loop
      vertex 6 0 0
      vertex 263 0 0
      vertex 400 -15 0
    endloop
  endfacet
  facet normal 0 0 -1
    outer loop
      vertex 263 0 0
      vertex 269 0 0
      vertex 400 -15 0
    endloop
  endfacet
  facet normal 0 0 -1
    outer loop
      vertex 82 149 0
      vertex 269 223 0
      vertex 208 155 0
    endloop
  endfacet
  facet normal 0 0 -1
    outer loop
      vertex 82 149 0
      vertex 208 155 0
      vertex 208 149 0
    endloop
  endfacet
  facet normal 0 0 -1
    outer loop
      vertex 269 223 0
      vertex 400 485 0
      vertex 329 223 0
    endloop
  endfacet
  facet normal 0 0 -1
    outer loop
      vertex 329 223 0
      vertex 400 485 0
      vertex 329 149 0
    endloop
  endfacet
  facet normal 0 0 -1
    outer loop
      vertex 325 143 0
      vertex 329 149 0
      vertex 400 -15 0
    endloop
  endfacet
  facet normal 0 0 -1
    outer loop
      vertex 82 149 0
      vertex 400 485 0
      vertex 269 223 0
    endloop
  endfacet
  facet normal 0 0 -1
    outer loop
      vertex 269 223 0
      vertex 269 149 0
      vertex 230 149 0
    endloop
  endfacet
  facet normal 0 0 -1
    outer loop
      vertex 269 143 0
      vertex 325 143 0
      vertex 400 -15 0
    endloop
  endfacet
  facet normal 0 0 -1
    outer loop
      vertex 269 223 0
      vertex 230 149 0
      vertex 230 155 0
    endloop
  endfacet
  facet normal 0 0 -1
    outer loop
      vertex 269 143 0
      vertex 400 -15 0
      vertex 269 0 0
    endloop
  endfacet
  facet normal 0 0 -1
    outer loop
      vertex 269 223 0
      vertex 230 155 0
      vertex 208 155 0
    endloop
  endfacet
  facet normal 0 0 -1
    outer loop
      vertex 82 155 0
      vertex 400 485 0
      vertex 82 149 0
    endloop
  endfacet
  facet normal 0 0 -1
    outer loop
      vertex 263 7 0
      vertex 6 0 0
      vertex 6 7 0
    endloop
  endfacet
  facet normal 0 0 -1
    outer loop
      vertex 0 149 0
      vertex 400 485 0
      vertex 60 155 0
    endloop
  endfacet
  facet normal 0 0 -1
    outer loop
      vertex 230 389 0
      vertex 400 485 0
      vertex 0 223 0
    endloop
  endfacet
  facet normal 0 0 -1
    outer loop
      vertex -100 485 0
      vertex 0 223 0
      vertex -60 223 0
    endloop
  endfacet
  facet normal 0 0 -1
    outer loop
      vertex -100 485 0
      vertex -60 223 0
      vertex -60 143 0
    endloop
  endfacet
  facet normal 0 0 -1
    outer loop
      vertex -100 485 0
      vertex 60 389 0
      vertex 0 223 0
    endloop
  endfacet
  facet normal 0 0 -1
    outer loop
      vertex 230 395 0
      vertex 400 485 0
      vertex 230 389 0
    endloop
  endfacet
  facet normal 0 0 -1
    outer loop
      vertex 60 389 0
      vertex 230 389 0
      vertex 0 223 0
    endloop
  endfacet
  facet normal 0 0 -1
    outer loop
      vertex -100 485 0
      vertex 400 485 0
      vertex 60 395 0
    endloop
  endfacet
  facet normal 0 0 -1
    outer loop
      vertex -100 485 0
      vertex 60 395 0
      vertex 60 389 0
    endloop
  endfacet
  facet normal 0 0 -1
    outer loop
      vertex 0 0 0
      vertex -100 -15 0
      vertex 0 143 0
    endloop
  endfacet
  facet normal 0 0 -1
    outer loop
      vertex 0 149 0
      vertex 60 155 0
      vertex 60 149 0
    endloop
  endfacet
  facet normal 1 0 0
    outer loop
      vertex -60 143 0
      vertex -60 223 0
      vertex -60 223 6
    endloop
  endfacet
  facet normal 1 0 0
    outer loop
      vertex -60 143 6
      vertex -60 143 0
      vertex -60 223 6
    endloop
  endfacet
  facet normal 0 0 1
    outer loop
      vertex 329 223 6
      vertex 400 -15 6
      vertex 400 485 6
    endloop
  endfacet
  facet normal 0 0 1
    outer loop
      vertex 82 149 6
      vertex 208 149 6
      vertex 82 155 6
    endloop
  endfacet
  facet normal 0 0 1
    outer loop
      vertex -100 485 6
      vertex -100 -15 6
      vertex -60 143 6
    endloop
  endfacet
  facet normal 0 0 1
    outer loop
      vertex 230 389 6
      vertex -60 223 6
      vertex 400 485 6
    endloop
  endfacet
  facet normal 0 0 1
    outer loop
      vertex -100 485 6
      vertex -60 143 6
      vertex -60 223 6
    endloop
  endfacet
  facet normal 0 0 1
    outer loop
      vertex -60 223 6
      vertex 0 223 6
      vertex 400 485 6
    endloop
  endfacet
  facet normal 0 0 1
    outer loop
      vertex 230 389 6
      vertex 60 389 6
      vertex -60 223 6
    endloop
  endfacet
  facet normal 0 0 1
    outer loop
      vertex 230 149 6
      vertex 269 149 6
      vertex 230 155 6
    endloop
  endfacet
  facet normal 0 0 1
    outer loop
      vertex 0 149 6
      vertex 60 155 6
      vertex 400 485 6
    endloop
  endfacet
  facet normal 0 0 1
    outer loop
      vertex 0 149 6
      vertex 60 149 6
      vertex 60 155 6
    endloop
  endfacet
  facet normal 0 0 1
    outer loop
      vertex 208 155 6
      vertex 230 155 6
      vertex 400 485 6
    endloop
  endfacet
  facet normal 0 0 1
    outer loop
      vertex 82 155 6
      vertex 208 155 6
      vertex 400 485 6
    endloop
  endfacet
  facet normal 0 0 1
    outer loop
      vertex 82 155 6
      vertex 208 149 6
      vertex 208 155 6
    endloop
  endfacet
  facet normal 0 0 1
    outer loop
      vertex 0 0 6
      vertex 0 143 6
      vertex -100 -15 6
    endloop
  endfacet
  facet normal 0 0 1
    outer loop
      vertex 325 143 6
      vertex 269 143 6
      vertex 400 -15 6
    endloop
  endfacet
  facet normal 0 0 1
    outer loop
      vertex 230 155 6
      vertex 269 223 6
      vertex 400 485 6
    endloop
  endfacet
  facet normal 0 0 1
    outer loop
      vertex 230 155 6
      vertex 269 149 6
      vertex 269 223 6
    endloop
  endfacet
  facet normal 0 0 1
    outer loop
      vertex 329 149 6
      vertex 400 -15 6
      vertex 329 223 6
    endloop
  endfacet
  facet normal 0 0 1
    outer loop
      vertex 325 149 6
      vertex 400 -15 6
      vertex 329 149 6
    endloop
  endfacet
  facet normal 0 0 1
    outer loop
      vertex 325 143 6
      vertex 400 -15 6
      vertex 325 149 6
    endloop
  endfacet
  facet normal 0 0 1
    outer loop
      vertex 269 223 6
      vertex 329 223 6
      vertex 400 485 6
    endloop
  endfacet
  facet normal 0 0 1
    outer loop
      vertex 263 7 6
      vertex 6 7 6
      vertex 263 0 6
    endloop
  endfacet
  facet normal 0 0 1
    outer loop
      vertex -100 -15 6
      vertex 400 -15 6
      vertex 269 0 6
    endloop
  endfacet
  facet normal 0 0 1
    outer loop
      vertex -100 -15 6
      vertex 269 0 6
      vertex 263 0 6
    endloop
  endfacet
  facet normal 0 0 1
    outer loop
      vertex 6 0 6
      vertex 263 0 6
      vertex 6 7 6
    endloop
  endfacet
  facet normal 0 0 1
    outer loop
      vertex -100 -15 6
      vertex 263 0 6
      vertex 6 0 6
    endloop
  endfacet
  facet normal 0 0 1
    outer loop
      vertex -100 -15 6
      vertex 6 0 6
      vertex 0 0 6
    endloop
  endfacet
  facet normal 0 0 1
    outer loop
      vertex 0 223 6
      vertex 0 149 6
      vertex 400 485 6
    endloop
  endfacet
  facet normal 0 0 1
    outer loop
      vertex -100 485 6
      vertex -60 223 6
      vertex 60 389 6
    endloop
  endfacet
  facet normal 0 0 1
    outer loop
      vertex -100 485 6
      vertex 60 395 6
      vertex 400 485 6
    endloop
  endfacet
  facet normal 0 0 1
    outer loop
      vertex -100 485 6
      vertex 60 389 6
      vertex 60 395 6
    endloop
  endfacet
  facet normal 0 0 1
    outer loop
      vertex 230 395 6
      vertex 230 389 6
      vertex 400 485 6
    endloop
  endfacet
  facet normal 0 0 1
    outer loop
      vertex 60 395 6
      vertex 230 395 6
      vertex 400 485 6
    endloop
  endfacet
  facet normal 0 0 1
    outer loop
      vertex 0 143 6
      vertex -60 143 6
      vertex -100 -15 6
    endloop
  endfacet
  facet normal 0 0 1
    outer loop
      vertex 60 155 6
      vertex 82 155 6
      vertex 400 485 6
    endloop
  endfacet
  facet normal 0 0 1
    outer loop
      vertex 269 143 6
      vertex 269 0 6
      vertex 400 -15 6
    endloop
  endfacet
  facet normal -1 0 0
    outer loop
      vertex 0 149 6
      vertex 0 223 6
      vertex 0 149 0
    endloop
  endfacet
  facet normal -1 0 0
    outer loop
      vertex 0 149 0
      vertex 0 223 6
      vertex 0 223 0
    endloop
  endfacet
  facet normal 0 -1 0
    outer loop
      vertex -100 -15 0
      vertex 400 -15 0
      vertex 400 -15 6
    endloop
  endfacet
  facet normal 0 -1 0
    outer loop
      vertex -100 -15 6
      vertex -100 -15 0
      vertex 400 -15 6
    endloop
  endfacet
  facet normal -1 0 0
    outer loop
      vertex -100 -15 6
      vertex -100 485 6
      vertex -100 -15 0
    endloop
  endfacet
  facet normal -1 0 0
    outer loop
      vertex -100 -15 0
      vertex -100 485 6
      vertex -100 485 0
    endloop
  endfacet
  facet normal 1 0 0
    outer loop
      vertex 400 -15 0
      vertex 400 485 0
      vertex 400 485 6
    endloop
  endfacet
  facet normal 1 0 0
    outer loop
      vertex 400 -15 6
      vertex 400 -15 0
      vertex 400 485 6
    endloop
  endfacet
  facet normal 0 1 0
    outer loop
      vertex -100 485 6
      vertex 400 485 6
      vertex -100 485 0
    endloop
  endfacet
  facet normal 0 1 0
    outer loop
      vertex -100 485 0
      vertex 400 485 6
      vertex 400 485 0
    endloop
  endfacet
  facet normal 0 1 0
    outer loop
      vertex -60 143 6
      vertex 0 143 6
      vertex -60 143 0
    endloop
  endfacet
  facet normal 0 1 0
    outer loop
      vertex -60 143 0
      vertex 0 143 6
      vertex 0 143 0
    endloop
  endfacet
  facet normal 0 -1 0
    outer loop
      vertex 0 149 0
      vertex 60 149 0
      vertex 60 149 6
    endloop
  endfacet
  facet normal 0 -1 0
    outer loop
      vertex 0 149 6
      vertex 0 149 0
      vertex 60 149 6
    endloop
  endfacet
  facet normal 1 0 0
    outer loop
      vertex 60 149 0
      vertex 60 155 0
      vertex 60 155 6
    endloop
  endfacet
  facet normal 1 0 0
    outer loop
      vertex 60 149 6
      vertex 60 149 0
      vertex 60 155 6
    endloop
  endfacet
  facet normal 0 -1 0
    outer loop
      vertex 60 155 0
      vertex 82 155 0
      vertex 82 155 6
    endloop
  endfacet
  facet normal 0 -1 0
    outer loop
      vertex 60 155 6
      vertex 60 155 0
      vertex 82 155 6
    endloop
  endfacet
  facet normal -1 0 0
    outer loop
      vertex 82 149 6
      vertex 82 155 6
      vertex 82 149 0
    endloop
  endfacet
  facet normal -1 0 0
    outer loop
      vertex 82 149 0
      vertex 82 155 6
      vertex 82 155 0
    endloop
  endfacet
  facet normal 0 -1 0
    outer loop
      vertex 82 149 0
      vertex 208 149 0
      vertex 208 149 6
    endloop
  endfacet
  facet normal 0 -1 0
    outer loop
      vertex 82 149 6
      vertex 82 149 0
      vertex 208 149 6
    endloop
  endfacet
  facet normal 1 0 0
    outer loop
      vertex 208 149 0
      vertex 208 155 0
      vertex 208 155 6
    endloop
  endfacet
  facet normal 1 0 0
    outer loop
      vertex 208 149 6
      vertex 208 149 0
      vertex 208 155 6
    endloop
  endfacet
  facet normal 0 -1 0
    outer loop
      vertex 208 155 0
      vertex 230 155 0
      vertex 230 155 6
    endloop
  endfacet
  facet normal 0 -1 0
    outer loop
      vertex 208 155 6
      vertex 208 155 0
      vertex 230 155 6
    endloop
  endfacet
  facet normal -1 0 0
    outer loop
      vertex 230 149 6
      vertex 230 155 6
      vertex 230 149 0
    endloop
  endfacet
  facet normal -1 0 0
    outer loop
      vertex 230 149 0
      vertex 230 155 6
      vertex 230 155 0
    endloop
  endfacet
  facet normal 0 -1 0
    outer loop
      vertex 230 149 0
      vertex 269 149 0
      vertex 269 149 6
    endloop
  endfacet
  facet normal 0 -1 0
    outer loop
      vertex 230 149 6
      vertex 230 149 0
      vertex 269 149 6
    endloop
  endfacet
  facet normal 1 0 0
    outer loop
      vertex 269 149 0
      vertex 269 223 0
      vertex 269 223 6
    endloop
  endfacet
  facet normal 1 0 0
    outer loop
      vertex 269 149 6
      vertex 269 149 0
      vertex 269 223 6
    endloop
  endfacet
  facet normal 0 -1 0
    outer loop
      vertex 269 223 0
      vertex 329 223 0
      vertex 329 223 6
    endloop
  endfacet
  facet normal 0 -1 0
    outer loop
      vertex 269 223 6
      vertex 269 223 0
      vertex 329 223 6
    endloop
  endfacet
  facet normal -1 0 0
    outer loop
      vertex 329 149 6
      vertex 329 223 6
      vertex 329 149 0
    endloop
  endfacet
  facet normal -1 0 0
    outer loop
      vertex 329 149 0
      vertex 329 223 6
      vertex 329 223 0
    endloop
  endfacet
  facet normal 0 1 0
    outer loop
      vertex 325 149 6
      vertex 329 149 6
      vertex 325 149 0
    endloop
  endfacet
  facet normal 0 1 0
    outer loop
      vertex 325 149 0
      vertex 329 149 6
      vertex 329 149 0
    endloop
  endfacet
  facet normal -1 0 0
    outer loop
      vertex 325 143 6
      vertex 325 149 6
      vertex 325 143 0
    endloop
  endfacet
  facet normal -1 0 0
    outer loop
      vertex 325 143 0
      vertex 325 149 6
      vertex 325 149 0
    endloop
  endfacet
  facet normal 0 1 0
    outer loop
      vertex 269 143 6
      vertex 325 143 6
      vertex 269 143 0
    endloop
  endfacet
  facet normal 0 1 0
    outer loop
      vertex 269 143 0
      vertex 325 143 6
      vertex 325 143 0
    endloop
  endfacet
  facet normal -1 0 0
    outer loop
      vertex 269 0 6
      vertex 269 143 6
      vertex 269 0 0
    endloop
  endfacet
  facet normal -1 0 0
    outer loop
      vertex 269 0 0
      vertex 269 143 6
      vertex 269 143 0
    endloop
  endfacet
  facet normal 0 1 0
    outer loop
      vertex 263 0 6
      vertex 269 0 6
      vertex 263 0 0
    endloop
  endfacet
  facet normal 0 1 0
    outer loop
      vertex 263 0 0
      vertex 269 0 6
      vertex 269 0 0
    endloop
  endfacet
  facet normal 1 0 0
    outer loop
      vertex 263 0 0
      vertex 263 7 0
      vertex 263 7 6
    endloop
  endfacet
  facet normal 1 0 0
    outer loop
      vertex 263 0 6
      vertex 263 0 0
      vertex 263 7 6
    endloop
  endfacet
  facet normal 0 1 0
    outer loop
      vertex 6 7 6
      vertex 263 7 6
      vertex 6 7 0
    endloop
  endfacet
  facet normal 0 1 0
    outer loop
      vertex 6 7 0
      vertex 263 7 6
      vertex 263 7 0
    endloop
  endfacet
  facet normal -1 0 0
    outer loop
      vertex 6 0 6
      vertex 6 7 6
      vertex 6 0 0
    endloop
  endfacet
  facet normal -1 0 0
    outer loop
      vertex 6 0 0
      vertex 6 7 6
      vertex 6 7 0
    endloop
  endfacet
  facet normal 0 1 0
    outer loop
      vertex 0 0 6
      vertex 6 0 6
      vertex 0 0 0
    endloop
  endfacet
  facet normal 0 1 0
    outer loop
      vertex 0 0 0
      vertex 6 0 6
      vertex 6 0 0
    endloop
  endfacet
  facet normal 1 0 0
    outer loop
      vertex 0 0 0
      vertex 0 143 0
      vertex 0 143 6
    endloop
  endfacet
  facet normal 1 0 0
    outer loop
      vertex 0 0 6
      vertex 0 0 0
      vertex 0 143 6
    endloop
  endfacet
  facet normal 0 1 0
    outer loop
      vertex 60 389 6
      vertex 230 389 6
      vertex 60 389 0
    endloop
  endfacet
  facet normal 0 1 0
    outer loop
      vertex 60 389 0
      vertex 230 389 6
      vertex 230 389 0
    endloop
  endfacet
  facet normal 1 0 0
    outer loop
      vertex 60 389 0
      vertex 60 395 0
      vertex 60 395 6
    endloop
  endfacet
  facet normal 1 0 0
    outer loop
      vertex 60 389 6
      vertex 60 389 0
      vertex 60 395 6
    endloop
  endfacet
  facet normal 0 -1 0
    outer loop
      vertex 60 395 0
      vertex 230 395 0
      vertex 230 395 6
    endloop
  endfacet
  facet normal 0 -1 0
    outer loop
      vertex 60 395 6
      vertex 60 395 0
      vertex 230 395 6
    endloop
  endfacet
  facet normal -1 0 0
    outer loop
      vertex 230 389 6
      vertex 230 395 6
      vertex 230 389 0
    endloop
  endfacet
  facet normal -1 0 0
    outer loop
      vertex 230 389 0
      vertex 230 395 6
      vertex 230 395 0
    endloop
  endfacet
  facet normal 0 1 0
    outer loop
      vertex 6 143 6
      vertex 263 143 6
      vertex 6 143 0
    endloop
  endfacet
  facet normal 0 1 0
    outer loop
      vertex 6 143 0
      vertex 263 143 6
      vertex 263 143 0
    endloop
  endfacet
  facet normal 0 0 -1
    outer loop
      vertex 6 143 0
      vertex 263 143 0
      vertex 6 13 0
    endloop
  endfacet
  facet normal 0 0 -1
    outer loop
      vertex 6 13 0
      vertex 263 143 0
      vertex 263 13 0
    endloop
  endfacet
  facet normal 1 0 0
    outer loop
      vertex 263 13 0
      vertex 263 143 0
      vertex 263 143 6
    endloop
  endfacet
  facet normal 1 0 0
    outer loop
      vertex 263 13 6
      vertex 263 13 0
      vertex 263 143 6
    endloop
  endfacet
  facet normal -1 0 0
    outer loop
      vertex 6 13 6
      vertex 6 143 6
      vertex 6 13 0
    endloop
  endfacet
  facet normal -1 0 0
    outer loop
      vertex 6 13 0
      vertex 6 143 6
      vertex 6 143 0
    endloop
  endfacet
  facet normal 0 0 1
    outer loop
      vertex 6 13 6
      vertex 263 13 6
      vertex 263 143 6
    endloop
  endfacet
  facet normal 0 0 1
    outer loop
      vertex 6 143 6
      vertex 6 13 6
      vertex 263 143 6
    endloop
  endfacet
  facet normal 0 -1 0
    outer loop
      vertex 6 13 0
      vertex 263 13 0
      vertex 263 13 6
    endloop
  endfacet
  facet normal 0 -1 0
    outer loop
      vertex 6 13 6
      vertex 6 13 0
      vertex 263 13 6
    endloop
  endfacet
endsolid OpenSCAD_Model
